<?xml version="1.0" encoding="UTF-8" standalone="no"?>
<svg
   xmlns:serif="http://www.serif.com/"
   xmlns:dc="http://purl.org/dc/elements/1.1/"
   xmlns:cc="http://creativecommons.org/ns#"
   xmlns:rdf="http://www.w3.org/1999/02/22-rdf-syntax-ns#"
   xmlns:svg="http://www.w3.org/2000/svg"
   xmlns="http://www.w3.org/2000/svg"
   xmlns:sodipodi="http://sodipodi.sourceforge.net/DTD/sodipodi-0.dtd"
   xmlns:inkscape="http://www.inkscape.org/namespaces/inkscape"
   inkscape:version="1.0 (4035a4fb49, 2020-05-01)"
   sodipodi:docname="weatherfax_pi_rollover.svg"
   id="svg30"
   style="fill-rule:evenodd;clip-rule:evenodd;"
   xml:space="preserve"
   version="1.1"
   viewBox="0 0 32 32"
   height="100%"
   width="100%"><metadata
     id="metadata36"><rdf:RDF><cc:Work
         rdf:about=""><dc:format>image/svg+xml</dc:format><dc:type
           rdf:resource="http://purl.org/dc/dcmitype/StillImage" /></cc:Work></rdf:RDF></metadata><defs
     id="defs34" /><sodipodi:namedview
     inkscape:current-layer="svg30"
     inkscape:window-maximized="0"
     inkscape:window-y="0"
     inkscape:window-x="0"
     inkscape:cy="25.142857"
     inkscape:cx="16"
     inkscape:zoom="26.25"
     showgrid="false"
     id="namedview32"
     inkscape:window-height="627"
     inkscape:window-width="1428"
     inkscape:pageshadow="2"
     inkscape:pageopacity="0"
     guidetolerance="10"
     gridtolerance="10"
     objecttolerance="10"
     borderopacity="1"
     bordercolor="#666666"
     pagecolor="#ffffff" /><g
     style="display:inline"
     id="g4276"><rect
       style="fill:#282828"
       height="32.154999"
       width="32.021999"
       y="-0.037999999"
       x="0.0020000001"
       serif:id="g4276"
       id="g42761" /></g><g
     id="g6990"><path
       style="fill:#fff;fill-rule:nonzero;"
       d="M18.313,2.696c1.506,-0.564 3.105,-0.7 4.679,-0.665c1.24,0.044 2.48,0.181 3.697,0.459c-0.014,0.058 -0.028,0.115 -0.041,0.172c-0.937,-0.22 -1.89,-0.339 -2.842,-0.413c-1.308,-0.092 -2.627,-0.061 -3.92,0.19c-1.119,0.221 -2.234,0.612 -3.193,1.331c-0.735,0.584 -1.428,1.243 -2.048,1.986c-0.949,1.123 -1.698,2.499 -2.048,4.025c-0.404,1.73 -0.309,3.579 0.114,5.292c0.274,1.097 0.688,2.159 1.289,3.07c0.48,0.723 1.096,1.355 1.843,1.673c0.488,0.209 1.022,0.276 1.536,0.184c0.387,-0.069 0.769,-0.165 1.152,-0.256c0.909,-0.221 1.821,-0.553 2.576,-1.198c0.47,-0.36 0.895,-0.795 1.303,-1.242c0.132,-0.14 0.267,-0.278 0.394,-0.425c0.151,-0.169 0.305,-0.335 0.445,-0.517c0.343,-0.384 0.67,-0.788 1,-1.188c0.232,-0.277 0.462,-0.557 0.689,-0.841c0.165,-0.208 0.347,-0.401 0.485,-0.636c0.57,-0.907 1.159,-1.799 1.676,-2.748c0.095,-0.199 0.233,-0.373 0.289,-0.596c0.224,-0.749 0.748,-1.34 1.362,-1.67c0.268,-0.148 0.553,-0.252 0.841,-0.334c-0.031,-0.121 -0.082,-0.232 -0.147,-0.333c0.334,0.093 0.668,0.184 1.002,0.279c-0.3,0.199 -0.618,0.358 -0.921,0.548c0.036,-0.1 0.064,-0.203 0.08,-0.309c-0.681,0.173 -1.356,0.559 -1.776,1.224c-0.165,0.251 -0.271,0.543 -0.36,0.839c-0.621,1.189 -1.349,2.296 -2.058,3.415c-0.395,0.5 -0.806,0.983 -1.203,1.48c-0.336,0.394 -0.665,0.793 -1.004,1.183l-0.033,0.039c-0.159,0.177 -0.323,0.351 -0.471,0.54c-0.153,0.152 -0.298,0.314 -0.45,0.467c-0.478,0.502 -0.987,0.971 -1.551,1.337c-0.956,0.625 -2.052,0.846 -3.117,1.084c-0.716,0.161 -1.477,0.052 -2.13,-0.331c-1.023,-0.594 -1.758,-1.685 -2.269,-2.845c-0.707,-1.635 -1.049,-3.48 -0.99,-5.306c0.055,-1.561 0.48,-3.099 1.221,-4.404c0.731,-1.31 1.729,-2.391 2.806,-3.314c0.625,-0.557 1.345,-0.959 2.092,-1.244l0.001,-0.002Z"
       id="path6" /><path
       style="fill:#fff;fill-rule:nonzero;"
       d="M20.992,4.332c0.244,-0.272 0.519,-0.502 0.772,-0.762c-0.033,0.152 -0.03,0.314 0.024,0.458c0.625,0.01 1.289,0.185 1.76,0.691c0.602,0.641 0.968,1.522 1.218,2.41c0.222,0.808 0.338,1.655 0.343,2.502c0.03,1.231 -0.253,2.48 -0.867,3.493c-0.107,0.181 -0.221,0.357 -0.341,0.526c-0.272,0.374 -0.569,0.722 -0.886,1.045c-0.176,0.186 -0.36,0.361 -0.549,0.529c-0.204,0.181 -0.414,0.354 -0.63,0.515c-0.886,0.66 -1.873,1.157 -2.912,1.377c-0.616,0.125 -1.255,0.163 -1.867,-0.001c-0.326,-0.092 -0.653,-0.245 -0.894,-0.524c-0.169,-0.217 -0.368,-0.4 -0.533,-0.621c-0.553,-0.708 -0.941,-1.595 -1.069,-2.541c-0.131,-0.918 -0.031,-1.863 0.203,-2.748c0.368,-1.481 0.971,-2.924 1.939,-4.005c0.613,-0.692 1.364,-1.194 2.145,-1.588c0.325,-0.161 0.644,-0.342 0.969,-0.503c0.019,0.049 0.039,0.099 0.059,0.148c-0.668,0.394 -1.383,0.681 -2.022,1.143c-0.661,0.455 -1.239,1.068 -1.695,1.785c-0.495,0.777 -0.853,1.661 -1.116,2.574c-0.2,0.699 -0.369,1.419 -0.385,2.159c-0.035,0.94 0.164,1.896 0.595,2.697c0.24,0.471 0.564,0.873 0.909,1.242c0.314,0.441 0.817,0.61 1.288,0.68c0.983,0.125 1.974,-0.138 2.883,-0.561c0.52,-0.246 1.018,-0.553 1.486,-0.913c0.218,-0.167 0.431,-0.344 0.637,-0.531c0.181,-0.164 0.353,-0.34 0.527,-0.514c0.289,-0.303 0.566,-0.622 0.812,-0.973c0.156,-0.218 0.301,-0.448 0.433,-0.687c0.411,-0.749 0.656,-1.617 0.707,-2.502c0.044,-0.609 0.02,-1.225 -0.053,-1.831c-0.136,-1.041 -0.421,-2.073 -0.926,-2.956c-0.277,-0.469 -0.631,-0.91 -1.097,-1.119c-0.316,-0.131 -0.65,-0.214 -0.986,-0.22c0.042,0.051 0.086,0.102 0.13,0.152c-0.337,-0.019 -0.676,0.015 -1.011,-0.026l0,0Z"
       id="path8" /><path
       style="fill:#101613;fill-rule:nonzero;"
       d="M20.525,7.729c0.31,-0.138 0.613,-0.293 0.922,-0.432c-0.043,0.126 -0.076,0.257 -0.081,0.394c0.481,0.094 0.945,0.368 1.245,0.821c0.412,0.61 0.542,1.405 0.564,2.162c0.001,0.64 0.04,1.329 -0.262,1.899c-0.07,0.13 -0.148,0.255 -0.234,0.371c-0.324,0.423 -0.753,0.712 -1.189,0.955c-0.3,0.151 -0.608,0.279 -0.914,0.41c-0.629,0.194 -1.248,0.479 -1.906,0.501c-0.437,0.017 -0.897,-0.133 -1.205,-0.506c-0.263,-0.309 -0.394,-0.73 -0.463,-1.148c-0.002,-0.02 -0.006,-0.06 -0.008,-0.08c-0.024,-0.448 -0.019,-0.911 0.124,-1.334c0.296,-0.909 0.603,-1.831 1.115,-2.61c0.398,-0.601 0.93,-1.115 1.56,-1.345c0.006,0.043 0.019,0.127 0.025,0.17c-0.591,0.247 -1.097,0.72 -1.471,1.3c-0.476,0.729 -0.768,1.586 -1.047,2.433c-0.208,0.589 -0.211,1.264 -0.045,1.867c0.131,0.472 0.459,0.877 0.881,1.001c0.585,0.187 1.186,-0.02 1.751,-0.204c0.582,-0.19 1.162,-0.406 1.706,-0.716c0.381,-0.222 0.75,-0.496 1.022,-0.882c0.077,-0.109 0.146,-0.226 0.2,-0.352c0.074,-0.168 0.134,-0.345 0.161,-0.531c0.073,-0.659 0.072,-1.331 -0.029,-1.987c-0.075,-0.468 -0.219,-0.937 -0.488,-1.305c-0.264,-0.371 -0.65,-0.612 -1.057,-0.694c0.022,0.073 0.046,0.147 0.069,0.22c-0.232,-0.072 -0.458,-0.17 -0.688,-0.249c-0.09,-0.031 -0.18,-0.065 -0.257,-0.128l-0.001,-0.001Z"
       id="path14" /><path
       style="fill:#fff;fill-rule:nonzero;"
       d="M3.652,10.476c0.943,-0.302 1.984,-0.346 2.899,0.099c0.815,0.39 1.466,1.139 1.929,1.994c0.513,0.942 0.836,2.004 1.08,3.075c0.433,1.328 0.883,2.652 1.423,3.927c0.204,0.456 0.394,0.936 0.714,1.301c0.565,0.822 1.303,1.489 2.141,1.895c0.529,0.26 1.093,0.431 1.665,0.503c1.038,0.147 2.095,0.026 3.108,-0.263c0.308,-0.081 0.612,-0.187 0.909,-0.312c0.927,-0.536 1.839,-1.112 2.731,-1.724c0.017,-0.012 0.052,-0.034 0.069,-0.046c0.249,-0.168 0.493,-0.347 0.735,-0.528c0.363,-0.272 0.72,-0.557 1.062,-0.864c0.307,-0.274 0.604,-0.563 0.886,-0.87c0.075,-0.084 0.153,-0.165 0.219,-0.259c0.841,-1.296 1.702,-2.574 2.576,-3.84c0.193,-0.282 0.403,-0.55 0.58,-0.846c0.34,-0.515 0.838,-0.842 1.337,-1.11c-0.03,-0.149 -0.094,-0.283 -0.18,-0.397c0.338,0.071 0.676,0.141 1.015,0.21c-0.285,0.218 -0.588,0.405 -0.885,0.6c0.018,-0.071 0.035,-0.142 0.053,-0.214c-0.526,0.269 -1.034,0.652 -1.348,1.222c-1.007,1.427 -1.984,2.882 -2.942,4.352c-0.13,0.228 -0.319,0.396 -0.48,0.592c-0.256,0.254 -0.512,0.509 -0.783,0.742c-0.351,0.305 -0.712,0.595 -1.08,0.872c-1.07,0.8 -2.199,1.485 -3.323,2.174c-0.153,0.095 -0.32,0.151 -0.484,0.213c-0.33,0.121 -0.667,0.213 -1.004,0.305c-1.027,0.24 -2.092,0.314 -3.129,0.11c-0.523,-0.103 -1.037,-0.277 -1.518,-0.535c-0.746,-0.399 -1.414,-0.99 -1.941,-1.719c-0.136,-0.202 -0.307,-0.369 -0.418,-0.593c-0.434,-0.814 -0.757,-1.699 -1.083,-2.577c-0.269,-0.75 -0.528,-1.506 -0.773,-2.268c-0.267,-1.177 -0.63,-2.348 -1.245,-3.347c-0.483,-0.788 -1.159,-1.452 -1.969,-1.734c-0.927,-0.341 -1.934,-0.2 -2.843,0.151c-0.723,0.277 -1.405,0.685 -2.044,1.165c-0.021,-0.034 -0.063,-0.102 -0.084,-0.136c0.742,-0.58 1.561,-1.04 2.424,-1.319l0.001,-0.001Z"
       id="path20" /><path
       style="fill:#8c12ca;fill-rule:nonzero;"
       d="M21.001,10.734c0.301,0.065 0.599,0.168 0.864,0.346c0.07,0.042 0.138,0.105 0.222,0.085c0.285,-0.029 0.569,-0.072 0.854,-0.101c-0.042,0.356 -0.088,0.71 -0.133,1.065c-0.016,0.091 -0.004,0.183 0.007,0.274c-0.054,0.126 -0.122,0.243 -0.199,0.352c-0.145,-0.389 -0.334,-0.764 -0.604,-1.055c-0.263,-0.298 -0.622,-0.463 -0.988,-0.483c-0.01,-0.161 -0.017,-0.322 -0.023,-0.483l0,0Z"
       id="path22" /><path
       style="fill:#8c12ca;fill-rule:nonzero;"
       d="M22.679,12.945c0.086,-0.117 0.164,-0.242 0.235,-0.372c0.093,0.223 0.158,0.458 0.231,0.69c0.058,0.045 0.134,0.024 0.2,0.039c0.167,0.012 0.314,0.113 0.449,0.22c-0.245,0.35 -0.523,0.669 -0.812,0.972c-0.054,-0.527 -0.147,-1.05 -0.303,-1.549l0,0Z"
       id="path24" /><path
       style="fill:#8c12ca;fill-rule:nonzero;"
       d="M23.014,14.696c0.317,-0.323 0.614,-0.672 0.886,-1.046c0.116,0.197 0.192,0.457 0.095,0.686c-0.11,0.304 -0.392,0.435 -0.635,0.559c-0.031,0.392 -0.031,0.785 -0.037,1.176c-0.113,-0.023 -0.227,-0.043 -0.34,-0.061c0.066,-0.435 0.026,-0.877 0.031,-1.314l0,0Z"
       id="path32" /><path
       style="fill:#fff;fill-rule:nonzero;"
       d="M3.249,15.319c0.653,-0.329 1.424,-0.3 2.059,0.068c0.868,0.493 1.506,1.38 2.033,2.292c1.052,2.132 2.095,4.271 3.07,6.452c0.161,0.355 0.315,0.714 0.477,1.067c0.249,0.559 0.621,1.026 0.949,1.522c1.11,-0.208 2.211,-0.478 3.312,-0.745c2.021,-0.501 4.03,-1.066 6.015,-1.734c0.866,-0.296 1.729,-0.605 2.578,-0.96c0.135,-0.059 0.278,-0.1 0.404,-0.182c0.093,-0.087 0.166,-0.198 0.249,-0.297c0.011,-0.014 0.034,-0.043 0.045,-0.057c0.53,-0.649 1.056,-1.3 1.586,-1.95c0.418,-0.525 0.856,-1.028 1.251,-1.577c0.733,-0.879 1.592,-1.613 2.509,-2.215c-0.029,-0.158 -0.102,-0.295 -0.181,-0.426c0.33,0.06 0.661,0.114 0.991,0.173c-0.041,0.062 -0.102,0.098 -0.157,0.139c-0.239,0.162 -0.471,0.336 -0.707,0.503c0.012,-0.044 0.036,-0.131 0.047,-0.175c-0.588,0.373 -1.134,0.831 -1.651,1.324c-0.37,0.355 -0.723,0.737 -1.019,1.176c-0.859,1.059 -1.717,2.118 -2.578,3.175c-0.103,0.115 -0.188,0.251 -0.298,0.357c-0.137,0.086 -0.29,0.128 -0.434,0.195c-1.752,0.724 -3.548,1.297 -5.35,1.828c-1.107,0.32 -2.219,0.618 -3.335,0.89c-0.314,0.08 -0.628,0.153 -0.943,0.227c-0.309,0.075 -0.62,0.141 -0.928,0.223c-0.489,0.089 -0.972,0.21 -1.459,0.309c-0.034,-0.045 -0.067,-0.092 -0.1,-0.138c-0.34,-0.505 -0.719,-0.987 -0.961,-1.57c-0.156,-0.335 -0.303,-0.676 -0.452,-1.015c-0.972,-2.17 -2.01,-4.299 -3.057,-6.421c-0.516,-0.891 -1.135,-1.761 -1.984,-2.239c-0.599,-0.345 -1.323,-0.366 -1.935,-0.05c-0.858,0.435 -1.514,1.276 -1.995,2.186c-0.044,-0.029 -0.088,-0.058 -0.131,-0.087c0.494,-0.953 1.183,-1.825 2.081,-2.268l-0.001,0Z"
       id="path38" /><path
       style="fill:#060af6;fill-rule:nonzero;"
       d="M22.804,16.88c0.078,-0.285 0.133,-0.577 0.18,-0.87c0.113,0.018 0.226,0.038 0.34,0.061c-0.028,0.096 -0.052,0.193 -0.075,0.291c-0.14,0.182 -0.293,0.348 -0.445,0.518l0,0Z"
       id="path44" /><path
       style="fill:#060af6;fill-rule:nonzero;"
       d="M22.701,17.253c0.149,-0.19 0.312,-0.363 0.471,-0.541c-0.102,0.356 -0.173,0.722 -0.274,1.078c-0.18,0.65 -0.41,1.289 -0.749,1.85c-0.029,0.058 -0.08,0.12 -0.057,0.193c0.072,0.366 0.149,0.729 0.228,1.092c-0.017,0.012 -0.051,0.034 -0.068,0.046c-0.339,0.004 -0.677,-0.01 -1.015,0.004c-0.1,0.075 -0.174,0.186 -0.26,0.278c-0.457,0.518 -0.934,1.016 -1.457,1.443c-0.297,0.125 -0.601,0.23 -0.908,0.311c1.106,-0.879 2.127,-1.928 2.926,-3.183c0.495,-0.783 0.907,-1.645 1.163,-2.571l0,0Z"
       id="path46" /><path
       style="fill:#fa0a09;fill-rule:nonzero;"
       d="M23.172,16.713l0.034,-0.039c0.056,0.814 0.056,1.634 0.14,2.446c0.158,0.003 0.317,0.02 0.465,0.089c0.13,0.067 0.232,0.185 0.306,0.325c-0.341,0.307 -0.698,0.591 -1.062,0.863c-0.113,-0.86 -0.206,-1.735 -0.157,-2.606c0.101,-0.356 0.172,-0.723 0.274,-1.078l0,0Z"
       id="path48" /><path
       style="fill:#fff;fill-rule:nonzero;"
       d="M2.912,19.832c0.338,-0.4 0.766,-0.76 1.266,-0.79c0.431,-0.032 0.839,0.222 1.137,0.565c0.239,0.288 0.463,0.613 0.565,1.001c0.497,1.643 0.896,3.331 1.13,5.052c0.057,0.415 0.098,0.833 0.133,1.252c0.023,0.452 0.057,0.905 0.037,1.359c-0.005,0.127 -0.01,0.254 -0.015,0.381l0.129,0c0.927,0.024 1.854,0.024 2.78,0.021c0.045,-0.001 0.09,-0.002 0.134,-0.002c1.248,-0.015 2.495,-0.042 3.74,-0.131c0.964,-0.074 1.934,-0.148 2.881,-0.384c0.575,-0.184 1.167,-0.27 1.75,-0.406c1.225,-0.266 2.449,-0.533 3.67,-0.822c0.945,-0.223 1.892,-0.441 2.823,-0.735c0.118,-0.043 0.248,-0.068 0.343,-0.164c0.681,-1.136 1.386,-2.251 2.062,-3.39c0.029,0.031 0.086,0.094 0.115,0.125c-0.691,1.145 -1.397,2.277 -2.087,3.422c-0.106,0.066 -0.218,0.117 -0.333,0.156c-0.889,0.289 -1.794,0.497 -2.698,0.713c-1.317,0.313 -2.638,0.602 -3.96,0.888c-0.534,0.125 -1.078,0.2 -1.603,0.373c-0.959,0.25 -1.942,0.323 -2.92,0.401c-2.323,0.152 -4.652,0.145 -6.978,0.109c0,-0.023 0,-0.07 -0.001,-0.093c0.002,-0.141 0.011,-0.28 0.015,-0.42c0.005,-0.437 -0.005,-0.874 -0.032,-1.309c-0.033,-0.426 -0.074,-0.851 -0.13,-1.275c-0.232,-1.722 -0.628,-3.41 -1.124,-5.054c-0.092,-0.353 -0.299,-0.646 -0.513,-0.911c-0.272,-0.329 -0.651,-0.58 -1.055,-0.549c-0.444,0.04 -0.823,0.36 -1.128,0.714c-0.55,0.649 -0.937,1.452 -1.294,2.254c-0.033,-0.019 -0.1,-0.059 -0.134,-0.08c0.355,-0.809 0.748,-1.613 1.296,-2.271l-0.001,0Z"
       id="path58" /><path
       style="fill:#fff;fill-rule:nonzero;"
       d="M30.064,19.602c0.251,0.271 0.524,0.514 0.767,0.793c-0.315,0.019 -0.636,-0.056 -0.948,0.021c-0.496,0.202 -0.911,0.596 -1.294,1.002c-0.363,0.398 -0.694,0.836 -0.988,1.305l-0.036,-0.066c-0.023,-0.007 -0.069,-0.021 -0.091,-0.028c0.439,-0.699 0.953,-1.341 1.549,-1.864c0.25,-0.213 0.519,-0.402 0.815,-0.516c0.242,-0.06 0.25,-0.419 0.226,-0.647l0,0Z"
       id="path60" /><path
       style="fill:#939393;fill-rule:nonzero;"
       d="M23.084,20.587c0.369,-0.277 0.73,-0.567 1.081,-0.872c0.029,0.462 -0.297,0.835 -0.658,0.959c0.065,0.749 0.295,1.46 0.481,2.177c0.13,-0.057 0.269,-0.066 0.407,-0.049c-0.083,0.099 -0.156,0.21 -0.249,0.297c-0.127,0.082 -0.269,0.123 -0.404,0.183c-0.29,-0.873 -0.508,-1.776 -0.658,-2.695l0,0Z"
       id="path62" /><path
       style="fill:#939393;fill-rule:nonzero;"
       d="M24.232,23.25c0.111,-0.107 0.196,-0.242 0.299,-0.358c0.32,0.131 0.53,0.641 0.349,1.002c-0.081,0.187 -0.241,0.298 -0.39,0.402c0.278,0.598 0.569,1.191 0.925,1.733c-0.096,0.097 -0.226,0.121 -0.343,0.164c-0.515,-0.855 -0.941,-1.78 -1.273,-2.749c0.144,-0.066 0.297,-0.109 0.433,-0.194l0,0Z"
       id="path70" /><path
       style="fill:#060af6;fill-rule:nonzero;"
       d="M18.274,23.28c0.337,-0.093 0.674,-0.184 1.004,-0.305c-0.01,0.399 -0.011,0.799 -0.021,1.199c-0.361,-0.111 -0.715,-0.254 -1.08,-0.345c-0.309,0.179 -0.597,0.405 -0.9,0.597c-0.659,0.456 -1.347,0.855 -2.055,1.2c-0.025,0.116 -0.049,0.233 -0.073,0.35c-1.1,0.267 -2.202,0.537 -3.311,0.745c2.242,-0.876 4.443,-1.951 6.436,-3.441l0,0Z"
       id="path72" /><path
       style="fill:#060af6;fill-rule:nonzero;"
       d="M14.17,26.389c0.315,-0.074 0.63,-0.147 0.943,-0.227c-0.051,0.227 -0.095,0.456 -0.142,0.684c-0.269,-0.148 -0.531,-0.311 -0.801,-0.457Z"
       id="path84" /><path
       style="fill:#939393;fill-rule:nonzero;"
       d="M25.588,26.23c0.271,-0.136 0.6,-0.17 0.862,0.009c0.174,0.105 0.259,0.347 0.24,0.567c-0.011,0.238 -0.109,0.452 -0.194,0.665c0.542,0.446 1.063,0.943 1.682,1.246c0.099,-0.228 0.267,-0.42 0.481,-0.494c0.229,-0.098 0.52,-0.014 0.652,0.233c0.133,0.24 0.14,0.538 0.117,0.813c0.257,0.085 0.525,0.09 0.79,0.124c-0.027,0.125 -0.008,0.276 -0.063,0.386c-0.883,-0.042 -1.75,-0.345 -2.522,-0.84c-0.98,-0.63 -1.805,-1.551 -2.461,-2.596c0.115,-0.039 0.227,-0.09 0.333,-0.156c0.021,0.011 0.063,0.032 0.083,0.043Z"
       id="path86" /><path
       style="fill:#c4c4c4;fill-rule:nonzero;"
       d="M11.783,26.922c0.487,-0.099 0.971,-0.221 1.459,-0.31c-0.897,0.372 -1.8,0.724 -2.714,1.036c-0.108,0.34 -0.212,0.683 -0.32,1.023c-0.045,0.001 -0.09,0.001 -0.134,0.002c-0.226,-0.168 -0.443,-0.349 -0.666,-0.521c-0.096,-0.092 -0.217,-0.018 -0.322,0.004c-0.597,0.167 -1.194,0.335 -1.792,0.496l-0.13,0c0.005,-0.127 0.011,-0.254 0.016,-0.38c1.516,-0.433 3.021,-0.92 4.503,-1.488c0.033,0.046 0.067,0.092 0.1,0.138l0,0Z"
       id="path88" /><path
       style="fill:#c4c4c4;fill-rule:nonzero;"
       d="M4.411,28.998c0.875,-0.209 1.747,-0.44 2.615,-0.685c-0.003,0.14 -0.012,0.28 -0.014,0.42c-0.311,0.094 -0.629,0.162 -0.938,0.27c-0.126,0.325 -0.248,0.652 -0.384,0.971c-0.277,-0.221 -0.552,-0.444 -0.838,-0.648c-0.354,0.062 -0.709,0.118 -1.063,0.176c-0.01,-0.114 -0.018,-0.229 -0.025,-0.344c0.216,-0.053 0.432,-0.104 0.647,-0.16l0,0Z"
       id="path94" /></g><rect
     style="fill:#1c1c1c;stroke:#b3b3b3;stroke-width:0.96px;"
     height="6.104"
     width="12.923"
     y="7.31"
     x="9.538"
     id="rect926" /><rect
     style="fill:#1c1c1c;stroke:#b3b3b3;stroke-width:1.17px;"
     height="9.326"
     width="19.496"
     y="11.375"
     x="6.252"
     id="rect902" /><rect
     style="fill:#1c1c1c;stroke:#b3b3b3;stroke-width:1px;"
     height="11.39"
     width="9.356"
     y="17.023"
     x="11.322"
     id="rect924" /><rect
     style="display:none;fill:#1c1c1c;stroke:#b3b3b3;stroke-width:1px"
     height="0.949"
     width="13.424"
     y="16.302999"
     x="9.2880001"
     id="rect930" /><path
     style="display:none;fill:#f3f3f3;fill-rule:nonzero;stroke:#777777;stroke-width:0.4px"
     d="m 15.266,20.673 c -0.127,0 -0.229,0.07 -0.229,0.157 v 2.193 l -1.715,0.029 2.752,3.009 2.619,-3.054 -1.757,-0.016 V 20.83 c 0,-0.087 -0.102,-0.157 -0.229,-0.157 z"
     id="rect934" /></svg>
