<?xml version="1.0" encoding="UTF-8" standalone="no"?>
<svg
   width="32.021999"
   height="32.154999"
   viewBox="0 0 32.021999 32.154999"
   version="1.1"
   xml:space="preserve"
   style="clip-rule:evenodd;fill-rule:evenodd"
   id="svg30"
   sodipodi:docname="weatherfax_panel.svg"
   inkscape:version="1.1.1 (3bf5ae0d25, 2021-09-20)"
   inkscape:export-filename="C:\Users\fcgle\source\weatherfax_pi\data\weatherfax_pi.png"
   inkscape:export-xdpi="109.91792"
   inkscape:export-ydpi="109.91792"
   xmlns:inkscape="http://www.inkscape.org/namespaces/inkscape"
   xmlns:sodipodi="http://sodipodi.sourceforge.net/DTD/sodipodi-0.dtd"
   xmlns="http://www.w3.org/2000/svg"
   xmlns:svg="http://www.w3.org/2000/svg"
   xmlns:serif="http://www.serif.com/"><defs
     id="defs34" /><sodipodi:namedview
     id="namedview32"
     pagecolor="#ffffff"
     bordercolor="#666666"
     borderopacity="1.0"
     inkscape:pageshadow="2"
     inkscape:pageopacity="0.0"
     inkscape:pagecheckerboard="0"
     showgrid="false"
     inkscape:zoom="22.46875"
     inkscape:cx="6.6981919"
     inkscape:cy="16.022253"
     inkscape:window-width="1920"
     inkscape:window-height="1122"
     inkscape:window-x="-8"
     inkscape:window-y="-8"
     inkscape:window-maximized="1"
     inkscape:current-layer="svg30" /><g
     id="g4276"
     style="display:inline"
     transform="translate(-0.002,0.038)"
     inkscape:export-filename="C:\Users\fcgle\source\weatherfax_pi\data\weatherfax_panel.png"
     inkscape:export-xdpi="95.537247"
     inkscape:export-ydpi="95.537247"><rect
       id="g42761"
       serif:id="g4276"
       x="0.0020000001"
       y="-0.037999999"
       width="32.021999"
       height="32.154999"
       style="display:inline;fill:#e6e6e6"
       inkscape:label="background"
       inkscape:export-filename="C:\Users\fcgle\source\weatherfax_pi\data\g42761.png"
       inkscape:export-xdpi="95.537247"
       inkscape:export-ydpi="95.537247" /></g><g
     id="g6990"
     inkscape:label="isobars"
     transform="translate(-0.002,0.038)"
     inkscape:export-filename="C:\Users\fcgle\source\weatherfax_pi\data\weatherfax_panel.png"
     inkscape:export-xdpi="95.537247"
     inkscape:export-ydpi="95.537247"><path
       id="path6"
       d="m 18.313,2.696 c 1.506,-0.564 3.105,-0.7 4.679,-0.665 1.24,0.044 2.48,0.181 3.697,0.459 -0.014,0.058 -0.028,0.115 -0.041,0.172 -0.937,-0.22 -1.89,-0.339 -2.842,-0.413 -1.308,-0.092 -2.627,-0.061 -3.92,0.19 -1.119,0.221 -2.234,0.612 -3.193,1.331 -0.735,0.584 -1.428,1.243 -2.048,1.986 -0.949,1.123 -1.698,2.499 -2.048,4.025 -0.404,1.73 -0.309,3.579 0.114,5.292 0.274,1.097 0.688,2.159 1.289,3.07 0.48,0.723 1.096,1.355 1.843,1.673 0.488,0.209 1.022,0.276 1.536,0.184 0.387,-0.069 0.769,-0.165 1.152,-0.256 0.909,-0.221 1.821,-0.553 2.576,-1.198 0.47,-0.36 0.895,-0.795 1.303,-1.242 0.132,-0.14 0.267,-0.278 0.394,-0.425 0.151,-0.169 0.305,-0.335 0.445,-0.517 0.343,-0.384 0.67,-0.788 1,-1.188 0.232,-0.277 0.462,-0.557 0.689,-0.841 0.165,-0.208 0.347,-0.401 0.485,-0.636 0.57,-0.907 1.159,-1.799 1.676,-2.748 0.095,-0.199 0.233,-0.373 0.289,-0.596 0.224,-0.749 0.748,-1.34 1.362,-1.67 0.268,-0.148 0.553,-0.252 0.841,-0.334 -0.031,-0.121 -0.082,-0.232 -0.147,-0.333 0.334,0.093 0.668,0.184 1.002,0.279 -0.3,0.199 -0.618,0.358 -0.921,0.548 0.036,-0.1 0.064,-0.203 0.08,-0.309 -0.681,0.173 -1.356,0.559 -1.776,1.224 -0.165,0.251 -0.271,0.543 -0.36,0.839 -0.621,1.189 -1.349,2.296 -2.058,3.415 -0.395,0.5 -0.806,0.983 -1.203,1.48 -0.336,0.394 -0.665,0.793 -1.004,1.183 l -0.033,0.039 c -0.159,0.177 -0.323,0.351 -0.471,0.54 -0.153,0.152 -0.298,0.314 -0.45,0.467 -0.478,0.502 -0.987,0.971 -1.551,1.337 -0.956,0.625 -2.052,0.846 -3.117,1.084 -0.716,0.161 -1.477,0.052 -2.13,-0.331 -1.023,-0.594 -1.758,-1.685 -2.269,-2.845 -0.707,-1.635 -1.049,-3.48 -0.99,-5.306 0.055,-1.561 0.48,-3.099 1.221,-4.404 0.731,-1.31 1.729,-2.391 2.806,-3.314 0.625,-0.557 1.345,-0.959 2.092,-1.244 z"
       style="display:inline;fill:#666666;fill-opacity:1;fill-rule:nonzero"
       inkscape:label="contour" /><path
       id="path8"
       d="M 20.992,4.332 C 21.236,4.06 21.511,3.83 21.764,3.57 c -0.033,0.152 -0.03,0.314 0.024,0.458 0.625,0.01 1.289,0.185 1.76,0.691 0.602,0.641 0.968,1.522 1.218,2.41 0.222,0.808 0.338,1.655 0.343,2.502 0.03,1.231 -0.253,2.48 -0.867,3.493 -0.107,0.181 -0.221,0.357 -0.341,0.526 -0.272,0.374 -0.569,0.722 -0.886,1.045 -0.176,0.186 -0.36,0.361 -0.549,0.529 -0.204,0.181 -0.414,0.354 -0.63,0.515 -0.886,0.66 -1.873,1.157 -2.912,1.377 -0.616,0.125 -1.255,0.163 -1.867,-0.001 -0.326,-0.092 -0.653,-0.245 -0.894,-0.524 -0.169,-0.217 -0.368,-0.4 -0.533,-0.621 -0.553,-0.708 -0.941,-1.595 -1.069,-2.541 -0.131,-0.918 -0.031,-1.863 0.203,-2.748 0.368,-1.481 0.971,-2.924 1.939,-4.005 0.613,-0.692 1.364,-1.194 2.145,-1.588 0.325,-0.161 0.644,-0.342 0.969,-0.503 0.019,0.049 0.039,0.099 0.059,0.148 -0.668,0.394 -1.383,0.681 -2.022,1.143 -0.661,0.455 -1.239,1.068 -1.695,1.785 -0.495,0.777 -0.853,1.661 -1.116,2.574 -0.2,0.699 -0.369,1.419 -0.385,2.159 -0.035,0.94 0.164,1.896 0.595,2.697 0.24,0.471 0.564,0.873 0.909,1.242 0.314,0.441 0.817,0.61 1.288,0.68 0.983,0.125 1.974,-0.138 2.883,-0.561 0.52,-0.246 1.018,-0.553 1.486,-0.913 0.218,-0.167 0.431,-0.344 0.637,-0.531 0.181,-0.164 0.353,-0.34 0.527,-0.514 0.289,-0.303 0.566,-0.622 0.812,-0.973 0.156,-0.218 0.301,-0.448 0.433,-0.687 0.411,-0.749 0.656,-1.617 0.707,-2.502 C 24.979,9.723 24.955,9.107 24.882,8.501 24.746,7.46 24.461,6.428 23.956,5.545 23.679,5.076 23.325,4.635 22.859,4.426 22.543,4.295 22.209,4.212 21.873,4.206 c 0.042,0.051 0.086,0.102 0.13,0.152 -0.337,-0.019 -0.676,0.015 -1.011,-0.026 z"
       style="display:inline;fill:#666666;fill-opacity:1;fill-rule:nonzero"
       inkscape:label="contour" /><path
       id="path14"
       d="m 20.525,7.729 c 0.31,-0.138 0.613,-0.293 0.922,-0.432 -0.043,0.126 -0.076,0.257 -0.081,0.394 0.481,0.094 0.945,0.368 1.245,0.821 0.412,0.61 0.542,1.405 0.564,2.162 10e-4,0.64 0.04,1.329 -0.262,1.899 -0.07,0.13 -0.148,0.255 -0.234,0.371 -0.324,0.423 -0.753,0.712 -1.189,0.955 -0.3,0.151 -0.608,0.279 -0.914,0.41 -0.629,0.194 -1.248,0.479 -1.906,0.501 -0.437,0.017 -0.897,-0.133 -1.205,-0.506 -0.263,-0.309 -0.394,-0.73 -0.463,-1.148 -0.002,-0.02 -0.006,-0.06 -0.008,-0.08 -0.024,-0.448 -0.019,-0.911 0.124,-1.334 0.296,-0.909 0.603,-1.831 1.115,-2.61 0.398,-0.601 0.93,-1.115 1.56,-1.345 0.006,0.043 0.019,0.127 0.025,0.17 -0.591,0.247 -1.097,0.72 -1.471,1.3 -0.476,0.729 -0.768,1.586 -1.047,2.433 -0.208,0.589 -0.211,1.264 -0.045,1.867 0.131,0.472 0.459,0.877 0.881,1.001 0.585,0.187 1.186,-0.02 1.751,-0.204 0.582,-0.19 1.162,-0.406 1.706,-0.716 0.381,-0.222 0.75,-0.496 1.022,-0.882 0.077,-0.109 0.146,-0.226 0.2,-0.352 0.074,-0.168 0.134,-0.345 0.161,-0.531 0.073,-0.659 0.072,-1.331 -0.029,-1.987 C 22.872,9.418 22.728,8.949 22.459,8.581 22.195,8.21 21.809,7.969 21.402,7.887 21.424,7.96 21.448,8.034 21.471,8.107 21.239,8.035 21.013,7.937 20.783,7.858 20.693,7.827 20.603,7.793 20.526,7.73 Z"
       style="fill:#666666;fill-rule:nonzero"
       inkscape:label="contour" /><path
       id="path20"
       d="m 3.652,10.476 c 0.943,-0.302 1.984,-0.346 2.899,0.099 0.815,0.39 1.466,1.139 1.929,1.994 0.513,0.942 0.836,2.004 1.08,3.075 0.433,1.328 0.883,2.652 1.423,3.927 0.204,0.456 0.394,0.936 0.714,1.301 0.565,0.822 1.303,1.489 2.141,1.895 0.529,0.26 1.093,0.431 1.665,0.503 1.038,0.147 2.095,0.026 3.108,-0.263 0.308,-0.081 0.612,-0.187 0.909,-0.312 0.927,-0.536 1.839,-1.112 2.731,-1.724 0.017,-0.012 0.052,-0.034 0.069,-0.046 0.249,-0.168 0.493,-0.347 0.735,-0.528 0.363,-0.272 0.72,-0.557 1.062,-0.864 0.307,-0.274 0.604,-0.563 0.886,-0.87 0.075,-0.084 0.153,-0.165 0.219,-0.259 0.841,-1.296 1.702,-2.574 2.576,-3.84 0.193,-0.282 0.403,-0.55 0.58,-0.846 0.34,-0.515 0.838,-0.842 1.337,-1.11 -0.03,-0.149 -0.094,-0.283 -0.18,-0.397 0.338,0.071 0.676,0.141 1.015,0.21 -0.285,0.218 -0.588,0.405 -0.885,0.6 0.018,-0.071 0.035,-0.142 0.053,-0.214 -0.526,0.269 -1.034,0.652 -1.348,1.222 -1.007,1.427 -1.984,2.882 -2.942,4.352 -0.13,0.228 -0.319,0.396 -0.48,0.592 -0.256,0.254 -0.512,0.509 -0.783,0.742 -0.351,0.305 -0.712,0.595 -1.08,0.872 -1.07,0.8 -2.199,1.485 -3.323,2.174 -0.153,0.095 -0.32,0.151 -0.484,0.213 -0.33,0.121 -0.667,0.213 -1.004,0.305 -1.027,0.24 -2.092,0.314 -3.129,0.11 -0.523,-0.103 -1.037,-0.277 -1.518,-0.535 -0.746,-0.399 -1.414,-0.99 -1.941,-1.719 C 11.55,20.933 11.379,20.766 11.268,20.542 10.834,19.728 10.511,18.843 10.185,17.965 9.916,17.215 9.657,16.459 9.412,15.697 9.145,14.52 8.782,13.349 8.167,12.35 7.684,11.562 7.008,10.898 6.198,10.616 5.271,10.275 4.264,10.416 3.355,10.767 2.632,11.044 1.95,11.452 1.311,11.932 1.29,11.898 1.248,11.83 1.227,11.796 c 0.742,-0.58 1.561,-1.04 2.424,-1.319 z"
       style="fill:#666666;fill-opacity:1;fill-rule:nonzero"
       inkscape:label="contour" /><path
       id="path22"
       d="m 21.001,10.734 c 0.301,0.065 0.599,0.168 0.864,0.346 0.07,0.042 0.138,0.105 0.222,0.085 0.285,-0.029 0.569,-0.072 0.854,-0.101 -0.042,0.356 -0.088,0.71 -0.133,1.065 -0.016,0.091 -0.004,0.183 0.007,0.274 -0.054,0.126 -0.122,0.243 -0.199,0.352 -0.145,-0.389 -0.334,-0.764 -0.604,-1.055 -0.263,-0.298 -0.622,-0.463 -0.988,-0.483 -0.01,-0.161 -0.017,-0.322 -0.023,-0.483 z"
       style="fill:#8c12ca;fill-rule:nonzero" /><path
       id="path24"
       d="m 22.679,12.945 c 0.086,-0.117 0.164,-0.242 0.235,-0.372 0.093,0.223 0.158,0.458 0.231,0.69 0.058,0.045 0.134,0.024 0.2,0.039 0.167,0.012 0.314,0.113 0.449,0.22 -0.245,0.35 -0.523,0.669 -0.812,0.972 -0.054,-0.527 -0.147,-1.05 -0.303,-1.549 z"
       style="fill:#8c12ca;fill-rule:nonzero" /><path
       id="path32"
       d="m 23.014,14.696 c 0.317,-0.323 0.614,-0.672 0.886,-1.046 0.116,0.197 0.192,0.457 0.095,0.686 -0.11,0.304 -0.392,0.435 -0.635,0.559 -0.031,0.392 -0.031,0.785 -0.037,1.176 -0.113,-0.023 -0.227,-0.043 -0.34,-0.061 0.066,-0.435 0.026,-0.877 0.031,-1.314 z"
       style="fill:#8c12ca;fill-rule:nonzero" /><path
       id="path38"
       d="m 3.249,15.319 c 0.653,-0.329 1.424,-0.3 2.059,0.068 0.868,0.493 1.506,1.38 2.033,2.292 1.052,2.132 2.095,4.271 3.07,6.452 0.161,0.355 0.315,0.714 0.477,1.067 0.249,0.559 0.621,1.026 0.949,1.522 1.11,-0.208 2.211,-0.478 3.312,-0.745 2.021,-0.501 4.03,-1.066 6.015,-1.734 0.866,-0.296 1.729,-0.605 2.578,-0.96 0.135,-0.059 0.278,-0.1 0.404,-0.182 0.093,-0.087 0.166,-0.198 0.249,-0.297 0.011,-0.014 0.034,-0.043 0.045,-0.057 0.53,-0.649 1.056,-1.3 1.586,-1.95 0.418,-0.525 0.856,-1.028 1.251,-1.577 0.733,-0.879 1.592,-1.613 2.509,-2.215 -0.029,-0.158 -0.102,-0.295 -0.181,-0.426 0.33,0.06 0.661,0.114 0.991,0.173 -0.041,0.062 -0.102,0.098 -0.157,0.139 -0.239,0.162 -0.471,0.336 -0.707,0.503 0.012,-0.044 0.036,-0.131 0.047,-0.175 -0.588,0.373 -1.134,0.831 -1.651,1.324 -0.37,0.355 -0.723,0.737 -1.019,1.176 -0.859,1.059 -1.717,2.118 -2.578,3.175 -0.103,0.115 -0.188,0.251 -0.298,0.357 -0.137,0.086 -0.29,0.128 -0.434,0.195 -1.752,0.724 -3.548,1.297 -5.35,1.828 -1.107,0.32 -2.219,0.618 -3.335,0.89 -0.314,0.08 -0.628,0.153 -0.943,0.227 -0.309,0.075 -0.62,0.141 -0.928,0.223 -0.489,0.089 -0.972,0.21 -1.459,0.309 -0.034,-0.045 -0.067,-0.092 -0.1,-0.138 -0.34,-0.505 -0.719,-0.987 -0.961,-1.57 C 10.567,24.878 10.42,24.537 10.271,24.198 9.299,22.028 8.261,19.899 7.214,17.777 6.698,16.886 6.079,16.016 5.23,15.538 4.631,15.193 3.907,15.172 3.295,15.488 2.437,15.923 1.781,16.764 1.3,17.674 1.256,17.645 1.212,17.616 1.169,17.587 1.663,16.634 2.352,15.762 3.25,15.319 Z"
       style="fill:#666666;fill-opacity:1;fill-rule:nonzero"
       inkscape:label="contour" /><path
       id="path44"
       d="m 22.804,16.88 c 0.078,-0.285 0.133,-0.577 0.18,-0.87 0.113,0.018 0.226,0.038 0.34,0.061 -0.028,0.096 -0.052,0.193 -0.075,0.291 -0.14,0.182 -0.293,0.348 -0.445,0.518 z"
       style="fill:#666666;fill-rule:nonzero"
       inkscape:label="front" /><path
       id="path46"
       d="m 22.701,17.253 c 0.149,-0.19 0.312,-0.363 0.471,-0.541 -0.102,0.356 -0.173,0.722 -0.274,1.078 -0.18,0.65 -0.41,1.289 -0.749,1.85 -0.029,0.058 -0.08,0.12 -0.057,0.193 0.072,0.366 0.149,0.729 0.228,1.092 -0.017,0.012 -0.051,0.034 -0.068,0.046 -0.339,0.004 -0.677,-0.01 -1.015,0.004 -0.1,0.075 -0.174,0.186 -0.26,0.278 -0.457,0.518 -0.934,1.016 -1.457,1.443 -0.297,0.125 -0.601,0.23 -0.908,0.311 1.106,-0.879 2.127,-1.928 2.926,-3.183 0.495,-0.783 0.907,-1.645 1.163,-2.571 z"
       style="fill:#666666;fill-rule:nonzero"
       inkscape:label="front" /><path
       id="path48"
       d="m 23.172,16.713 0.034,-0.039 c 0.056,0.814 0.056,1.634 0.14,2.446 0.158,0.003 0.317,0.02 0.465,0.089 0.13,0.067 0.232,0.185 0.306,0.325 -0.341,0.307 -0.698,0.591 -1.062,0.863 -0.113,-0.86 -0.206,-1.735 -0.157,-2.606 0.101,-0.356 0.172,-0.723 0.274,-1.078 z"
       style="fill:#666666;fill-rule:nonzero"
       inkscape:label="front" /><path
       id="path58"
       d="m 2.912,19.832 c 0.338,-0.4 0.766,-0.76 1.266,-0.79 0.431,-0.032 0.839,0.222 1.137,0.565 0.239,0.288 0.463,0.613 0.565,1.001 0.497,1.643 0.896,3.331 1.13,5.052 0.057,0.415 0.098,0.833 0.133,1.252 0.023,0.452 0.057,0.905 0.037,1.359 -0.005,0.127 -0.01,0.254 -0.015,0.381 h 0.129 c 0.927,0.024 1.854,0.024 2.78,0.021 0.045,-10e-4 0.09,-0.002 0.134,-0.002 1.248,-0.015 2.495,-0.042 3.74,-0.131 0.964,-0.074 1.934,-0.148 2.881,-0.384 0.575,-0.184 1.167,-0.27 1.75,-0.406 1.225,-0.266 2.449,-0.533 3.67,-0.822 0.945,-0.223 1.892,-0.441 2.823,-0.735 0.118,-0.043 0.248,-0.068 0.343,-0.164 0.681,-1.136 1.386,-2.251 2.062,-3.39 0.029,0.031 0.086,0.094 0.115,0.125 -0.691,1.145 -1.397,2.277 -2.087,3.422 -0.106,0.066 -0.218,0.117 -0.333,0.156 -0.889,0.289 -1.794,0.497 -2.698,0.713 -1.317,0.313 -2.638,0.602 -3.96,0.888 -0.534,0.125 -1.078,0.2 -1.603,0.373 -0.959,0.25 -1.942,0.323 -2.92,0.401 -2.323,0.152 -4.652,0.145 -6.978,0.109 0,-0.023 0,-0.07 -0.001,-0.093 0.002,-0.141 0.011,-0.28 0.015,-0.42 C 7.032,27.876 7.022,27.439 6.995,27.004 6.962,26.578 6.921,26.153 6.865,25.729 6.633,24.007 6.237,22.319 5.741,20.675 5.649,20.322 5.442,20.029 5.228,19.764 4.956,19.435 4.577,19.184 4.173,19.215 3.729,19.255 3.35,19.575 3.045,19.929 2.495,20.578 2.108,21.381 1.751,22.183 1.718,22.164 1.651,22.124 1.617,22.103 1.972,21.294 2.365,20.49 2.913,19.832 Z"
       style="fill:#666666;fill-opacity:1;fill-rule:nonzero"
       inkscape:label="contour" /><path
       id="path60"
       d="m 30.064,19.602 c 0.251,0.271 0.524,0.514 0.767,0.793 -0.315,0.019 -0.636,-0.056 -0.948,0.021 -0.496,0.202 -0.911,0.596 -1.294,1.002 -0.363,0.398 -0.694,0.836 -0.988,1.305 l -0.036,-0.066 c -0.023,-0.007 -0.069,-0.021 -0.091,-0.028 0.439,-0.699 0.953,-1.341 1.549,-1.864 0.25,-0.213 0.519,-0.402 0.815,-0.516 0.242,-0.06 0.25,-0.419 0.226,-0.647 z"
       style="fill:#666666;fill-opacity:1;fill-rule:nonzero"
       inkscape:label="contour" /><path
       id="path62"
       d="m 23.084,20.587 c 0.369,-0.277 0.73,-0.567 1.081,-0.872 0.029,0.462 -0.297,0.835 -0.658,0.959 0.065,0.749 0.295,1.46 0.481,2.177 0.13,-0.057 0.269,-0.066 0.407,-0.049 -0.083,0.099 -0.156,0.21 -0.249,0.297 -0.127,0.082 -0.269,0.123 -0.404,0.183 -0.29,-0.873 -0.508,-1.776 -0.658,-2.695 z"
       style="fill:#666666;fill-rule:nonzero"
       inkscape:label="front" /><path
       id="path70"
       d="m 24.232,23.25 c 0.111,-0.107 0.196,-0.242 0.299,-0.358 0.32,0.131 0.53,0.641 0.349,1.002 -0.081,0.187 -0.241,0.298 -0.39,0.402 0.278,0.598 0.569,1.191 0.925,1.733 -0.096,0.097 -0.226,0.121 -0.343,0.164 -0.515,-0.855 -0.941,-1.78 -1.273,-2.749 0.144,-0.066 0.297,-0.109 0.433,-0.194 z"
       style="fill:#666666;fill-rule:nonzero"
       inkscape:label="front" /><path
       id="path72"
       d="m 18.274,23.28 c 0.337,-0.093 0.674,-0.184 1.004,-0.305 -0.01,0.399 -0.011,0.799 -0.021,1.199 -0.361,-0.111 -0.715,-0.254 -1.08,-0.345 -0.309,0.179 -0.597,0.405 -0.9,0.597 -0.659,0.456 -1.347,0.855 -2.055,1.2 -0.025,0.116 -0.049,0.233 -0.073,0.35 -1.1,0.267 -2.202,0.537 -3.311,0.745 2.242,-0.876 4.443,-1.951 6.436,-3.441 z"
       style="fill:#666666;fill-rule:nonzero"
       inkscape:label="front" /><path
       id="path84"
       d="m 14.17,26.389 c 0.315,-0.074 0.63,-0.147 0.943,-0.227 -0.051,0.227 -0.095,0.456 -0.142,0.684 -0.269,-0.148 -0.531,-0.311 -0.801,-0.457 z"
       style="fill:#666666;fill-rule:nonzero"
       inkscape:label="front" /><path
       id="path86"
       d="m 25.588,26.23 c 0.271,-0.136 0.6,-0.17 0.862,0.009 0.174,0.105 0.259,0.347 0.24,0.567 -0.011,0.238 -0.109,0.452 -0.194,0.665 0.542,0.446 1.063,0.943 1.682,1.246 0.099,-0.228 0.267,-0.42 0.481,-0.494 0.229,-0.098 0.52,-0.014 0.652,0.233 0.133,0.24 0.14,0.538 0.117,0.813 0.257,0.085 0.525,0.09 0.79,0.124 -0.027,0.125 -0.008,0.276 -0.063,0.386 -0.883,-0.042 -1.75,-0.345 -2.522,-0.84 -0.98,-0.63 -1.805,-1.551 -2.461,-2.596 0.115,-0.039 0.227,-0.09 0.333,-0.156 0.021,0.011 0.063,0.032 0.083,0.043 z"
       style="fill:#666666;fill-rule:nonzero"
       inkscape:label="front" /><path
       id="path88"
       d="m 11.783,26.922 c 0.487,-0.099 0.971,-0.221 1.459,-0.31 -0.897,0.372 -1.8,0.724 -2.714,1.036 -0.108,0.34 -0.212,0.683 -0.32,1.023 -0.045,0.001 -0.09,0.001 -0.134,0.002 C 9.848,28.505 9.631,28.324 9.408,28.152 9.312,28.06 9.191,28.134 9.086,28.156 8.489,28.323 7.892,28.491 7.294,28.652 h -0.13 c 0.005,-0.127 0.011,-0.254 0.016,-0.38 1.516,-0.433 3.021,-0.92 4.503,-1.488 0.033,0.046 0.067,0.092 0.1,0.138 z"
       style="fill:#666666;fill-rule:nonzero"
       inkscape:label="front" /><path
       id="path94"
       d="m 4.411,28.998 c 0.875,-0.209 1.747,-0.44 2.615,-0.685 -0.003,0.14 -0.012,0.28 -0.014,0.42 -0.311,0.094 -0.629,0.162 -0.938,0.27 C 5.948,29.328 5.826,29.655 5.69,29.974 5.413,29.753 5.138,29.53 4.852,29.326 4.498,29.388 4.143,29.444 3.789,29.502 3.779,29.388 3.771,29.273 3.764,29.158 3.98,29.105 4.196,29.054 4.411,28.998 Z"
       style="fill:#666666;fill-rule:nonzero"
       inkscape:label="front" /></g><rect
     id="rect926"
     x="9.5360003"
     y="7.348"
     width="12.923"
     height="6.1040001"
     style="display:inline;fill:#e6e6e6;stroke:#404040;stroke-width:1;stroke-opacity:1;stroke-miterlimit:4;stroke-dasharray:none"
     inkscape:label="fax"
     inkscape:export-filename="C:\Users\fcgle\source\weatherfax_pi\data\weatherfax_panel.png"
     inkscape:export-xdpi="95.537247"
     inkscape:export-ydpi="95.537247" /><rect
     id="rect902"
     x="6.25"
     y="11.413"
     width="19.496"
     height="9.3260002"
     style="display:inline;fill:#e6e6e6;stroke:#404040;stroke-width:1;stroke-opacity:1;stroke-miterlimit:4;stroke-dasharray:none"
     inkscape:label="fax"
     inkscape:export-filename="C:\Users\fcgle\source\weatherfax_pi\data\weatherfax_panel.png"
     inkscape:export-xdpi="95.537247"
     inkscape:export-ydpi="95.537247" /><rect
     id="rect924"
     x="11.32"
     y="17.061001"
     width="9.3559999"
     height="11.39"
     style="display:inline;fill:#ffffff;stroke:#404040;stroke-width:1px;stroke-opacity:1;fill-opacity:1"
     inkscape:label="fax"
     inkscape:export-filename="C:\Users\fcgle\source\weatherfax_pi\data\weatherfax_panel.png"
     inkscape:export-xdpi="95.537247"
     inkscape:export-ydpi="95.537247" /><rect
     id="rect930"
     x="9.2860003"
     y="16.341"
     width="13.424"
     height="0.949"
     style="display:inline;fill:#3b3b3b;fill-opacity:1;stroke:#595959;stroke-width:1px;stroke-opacity:1"
     inkscape:label="fax"
     inkscape:export-filename="C:\Users\fcgle\source\weatherfax_pi\data\weatherfax_panel.png"
     inkscape:export-xdpi="95.537247"
     inkscape:export-ydpi="95.537247" /><path
     id="rect934"
     d="m 15.264,20.711 c -0.127,0 -0.229,0.07 -0.229,0.157 v 2.193 l -1.715,0.029 2.752,3.009 2.619,-3.054 -1.757,-0.016 v -2.161 c 0,-0.087 -0.102,-0.157 -0.229,-0.157 z"
     style="fill:#f3f3f3;fill-rule:nonzero;stroke:#777777;stroke-width:0.4px"
     inkscape:label="fax"
     inkscape:export-filename="C:\Users\fcgle\source\weatherfax_pi\data\weatherfax_panel.png"
     inkscape:export-xdpi="95.537247"
     inkscape:export-ydpi="95.537247" /></svg>
